<?xml version="1.0" encoding="UTF-8"?>
<!DOCTYPE svg PUBLIC "-//W3C//DTD SVG 1.1//EN" "http://www.w3.org/Graphics/SVG/1.1/DTD/svg11.dtd">
<!-- Creator: CorelDRAW 2018 (64 Bit) -->
<svg xmlns="http://www.w3.org/2000/svg" xml:space="preserve" width="12.6998mm" height="12.6998mm" version="1.1" style="shape-rendering:geometricPrecision; text-rendering:geometricPrecision; image-rendering:optimizeQuality; fill-rule:evenodd; clip-rule:evenodd"
viewBox="0 0 1269.98 1269.98"
 xmlns:xlink="http://www.w3.org/1999/xlink">
 <defs>
  <style type="text/css">
   <![CDATA[
    .fil0 {fill:none}
    .fil2 {fill:#F7ECDB}
    .fil1 {fill:#317B74}
    .fil5 {fill:#F89C32;fill-rule:nonzero}
    .fil4 {fill:#317B74;fill-rule:nonzero}
    .fil3 {fill:#F89C32;fill-rule:nonzero;fill-opacity:0.200000}
   ]]>
  </style>
 </defs>
 <g id="Camada_x0020_1">
  <metadata id="CorelCorpID_0Corel-Layer"/>
  <rect class="fil0" x="-0.01" y="-0.01" width="1270" height="1270"/>
  <g id="_1966409716752">
   <polygon class="fil1" points="634.99,33.16 844.52,121.3 1054.07,209.43 1140.86,422.22 1227.65,634.99 1140.86,847.76 1054.07,1060.55 844.52,1148.68 634.99,1236.81 425.46,1148.68 215.9,1060.55 129.11,847.76 42.32,634.99 129.11,422.22 215.9,209.43 425.46,121.3 "/>
   <path class="fil2" d="M226.91 671.86l-0.44 5.72 0.6 -0.02 0.21 -0.03 0.63 -0.02 0.19 -0.02 0.63 -0.05 0.16 -0.02 0.66 -0.05 0.11 -0.02 0.68 -0.1 0.09 -0.02 0.68 -0.09 0.07 0 0.7 -0.14 0.05 0 0.72 -0.14 0.72 -0.17 0.03 0 0.67 -0.16 0.05 -0.02 0.65 -0.17 0.07 -0.02 0.63 -0.19 0.1 -0.02 0.58 -0.19 0.12 -0.04 0.53 -0.19 0.14 -0.05 0.52 -0.18 0.16 -0.07 0.49 -0.19 0.19 -0.07 0.44 -0.19 0.21 -0.09 0.42 -0.19 0.23 -0.09 0.4 -0.19 0.23 -0.11 0.38 -0.19 0.25 -0.14 0.35 -0.19 0.28 -0.14 0.33 -0.16 0.3 -0.19 0.28 -0.16 0.33 -0.19 0.26 -0.14 0.32 -0.21 0.26 -0.14 0.35 -0.23 0.21 -0.14 0.37 -0.23 0.19 -0.14 0.4 -0.26 0.16 -0.12 0.42 -0.3 0.14 -0.09 0.42 -0.31 0.14 -0.09 0.42 -0.33 0.12 -0.09 0.44 -0.35 0.09 -0.07 0.47 -0.37 0.07 -0.05 0.49 -0.4 0.05 -0.02 0.49 -0.42 0.02 -0.02 0.54 -0.45 0.51 -0.46 0.02 0 0.49 -0.45 0.05 -0.04 0.47 -0.42 0.07 -0.07 0.46 -0.42 0.07 -0.07 0.42 -0.4 0.1 -0.09 0.42 -0.4 0.11 -0.12 0.4 -0.37 0.14 -0.12 0.37 -0.37 0.14 -0.16 0.38 -0.35 0.16 -0.17 0.35 -0.32 0.19 -0.19 0.3 -0.33 0.21 -0.21 0.3 -0.3 0.24 -0.23 0.28 -0.28 0.25 -0.26 0.26 -0.26 0.26 -0.28 0.25 -0.25 0.28 -0.28 0.24 -0.24 0.3 -0.32 0.21 -0.21 0.33 -0.33 0.18 -0.21 0.35 -0.35 0.17 -0.16 0.37 -0.4 0.16 -0.14 0.4 -0.4 0.12 -0.14 0.42 -0.42 0.11 -0.11 0.45 -0.45 0.09 -0.09 0.47 -0.47 0.07 -0.07 0.49 -0.49 0.04 -0.07 0.52 -0.49 0.04 -0.04 0.52 -0.52 0.02 -0.02 0.56 -0.54c-11.13,26.37 -20.91,49.75 -31.52,75 9.56,-5.49 17.82,-10.25 25.27,-14.49 -7.28,17.78 -14.68,35.86 -22.1,53.97 1.28,0.3 2.57,0.63 3.83,0.93 7.28,-8.14 14.56,-16.31 21.88,-24.45 1.24,0.49 2.45,0.95 3.69,1.44 -11.34,13.05 -16.99,26.84 -15.54,42.19 1.38,14.58 -0.09,29.59 10.57,45.2 2.73,-16.66 2.92,-30.87 14.26,-43.05 -4.74,34.9 8.4,65.66 28.35,95.01 0.84,-6.93 -0.52,-13.7 -0.05,-20.39 0.51,-6.65 2.82,-13.23 4.32,-19.81 1.4,0.04 2.87,0.04 4.27,0.04 -2.99,26 12.36,46.51 27.9,69.68 -2.28,-12.7 -4.1,-22.85 -5.95,-33 1.24,-0.28 2.5,-0.56 3.76,-0.81 16.87,36.42 50.54,62.18 86.38,86.61 24.73,16.84 55.67,28.02 75.55,49.28 0.14,0.16 1.26,-0.28 2.78,-0.7 -11.83,-26.11 -29.17,-49.05 -56.05,-67.25 13.56,6.65 25.67,14.24 36.68,22.68 22.03,16.96 35.47,38.36 47.88,60.34 6.54,11.57 15.38,22.24 23.2,33.32 0.56,-0.23 1.14,-0.51 1.75,-0.79 -1.38,-6.54 -2.76,-13.09 -4.27,-20.33 14.32,10.08 27.53,19.37 40.76,28.68l2.4 -1.96c-1.05,-2.1 -2.19,-4.11 -3.15,-6.21 -1.09,-2.28 -2.05,-4.64 -3.24,-7.25 1.91,0.02 2.89,-0.21 3.48,0.07 39.87,19.76 81.76,18.52 124.95,1.93 10.24,-3.94 18.29,-9.24 24.36,-15.82 4.97,-5.36 8.61,-11.59 10.99,-18.55 0.42,-1.21 1.65,-2.28 2.54,-3.43 0.65,0.14 1.31,0.33 1.96,0.45 -1.61,9.03 -3.22,18.1 -4.81,27.18 1.36,0.26 2.73,0.61 4.06,0.89 11.97,-20.21 23.92,-40.37 35.89,-60.58 0.23,0.03 0.49,0.03 0.77,0.03l-9.26 29.35c1.02,0.51 2.05,1 3.05,1.52 18.44,-37.57 48.93,-68.27 87.34,-94.92 -3.06,8.96 -6,17.69 -8.91,26.46 12.13,-10.92 20.9,-22.75 32.52,-32.6 11.53,-9.73 25.83,-17.52 38.95,-26.11 -1.19,7.59 -2.57,16.31 -4.2,26.88 27.88,-20.23 38.61,-44.56 44.21,-70.79 1.22,0.09 2.45,0.16 3.69,0.23l2.66 33.11c25.18,-29.12 19.18,-59.38 26.23,-88.15 2.49,8.91 4.99,17.9 7.49,26.86 1.02,-0.17 2.07,-0.31 3.08,-0.47 -0.54,-25.36 -1.03,-50.73 -1.54,-76.04 8.26,5.76 15.77,10.96 23.31,16.19 -9.52,-37.85 -11.06,-51.92 -4.79,-65.08 5.07,2.29 9.92,4.62 14.94,6.77 4.22,1.84 8.61,3.5 15.23,6.16 0.59,0.19 1.17,0.44 1.73,0.68 -1.82,-2.17 -3.62,-4.32 -5.32,-6.49 -19.48,-24.5 -30.71,-49.02 -31.43,-76.65 5.44,2.15 10.87,4.27 17.17,6.72 3.11,1.21 6.44,2.52 10.08,3.94 -4.85,-6.18 -10.17,-10.99 -13.46,-15.7 -1.49,-2.15 -2.54,-4.27 -3.01,-6.46 -0.26,-1.5 -0.23,-2.99 0,-4.53 0.86,-5.86 4.74,-12.11 6.65,-17.99 0.12,0.12 0.26,0.3 0.35,0.49 -0.82,-1.94 -1.52,-3.85 -2.05,-5.76 -0.52,-1.8 -0.87,-3.6 -1.1,-5.39 -0.61,-5.65 0.14,-11.11 2.19,-16.2 1.99,-5.62 6.35,-10.26 10.48,-13.65 4.29,-43.16 2.17,-130.64 -76.18,-172.5 -0.21,0.1 -0.38,0.17 -0.52,0.19 -9.7,-27.28 -20.48,-56.12 -53.71,-73.83 3.29,11.11 5.97,20.23 8.31,28.19 -15.47,-7.35 -32.18,-13.63 -46.11,-22.42 -14,-8.87 -25.27,-20.26 -40.02,-30.24 4.44,8.93 8.87,17.89 13.4,27.04 -45.6,-23.05 -83.14,-51.54 -108.43,-89.09 -1.08,0.68 -2.13,1.33 -3.2,2.01 4.76,10.03 9.5,20.04 14.21,30.05 -0.37,0.26 -0.26,0.19 -0.63,0.45 -15.91,-20 -31.83,-39.97 -47.74,-59.97 -2.31,1.31 -1.8,1 -4.08,2.31 2.91,9.22 5.85,18.41 8.79,27.63 -0.7,0.25 -1.37,0.51 -2.07,0.74 -1.12,-1.09 -2.66,-2.07 -3.29,-3.33 -7.89,-15.75 -21.98,-26.74 -43.33,-31.71 -24.9,-5.86 -48.91,-7.59 -71.8,-4.44 -22.56,3.11 -44.05,10.92 -64.28,24.22 -0.59,0.38 -2.69,1.8 -3.74,0.59l2.08 -16.34c0.05,-0.32 -0.26,-0.58 -0.54,-0.49 -23.1,7.42 -22.23,28.54 -39.85,36.19 -0.98,0.42 1.96,-7.02 2.8,-13.79 0.42,-3.36 0.35,-6.55 -0.98,-8.51 -0.42,-0.63 -1.4,-0.89 -2.08,-0.59 -8.91,4.06 -17.64,16.62 -25.22,31.69 -14.21,28.09 -24.59,64.89 -25.48,71.26 -1.49,10.76 -1.14,-45.5 -1.94,-43.49 -8.49,20.86 -21.04,31.31 -34.55,39.17 -13.82,8.03 -28.61,13.35 -41.05,24.22 -30.05,26.3 -58.26,53.39 -74.41,85.96l-0.02 0 0 0.03c-79.85,60.2 -56.51,152.73 -42.07,191.07l0.89 2.31 0.25 0.68c3.62,9.21 6.4,14.6 6.4,14.6 -2.24,0.91 -4.48,1.73 -6.68,2.52 -1.28,0.47 -2.54,0.89 -3.78,1.31l-3.08 1 -0.28 0.7 -0.07 0.21 -0.18 0.52 -0.17 0.39 -0.11 0.33 -0.24 0.61 -0.04 0.11 -0.28 0.73 -0.05 0.11 -0.23 0.63 -0.12 0.33 -0.16 0.42 -0.21 0.54 -0.1 0.21 -0.28 0.74 -0.28 0.77 -0.09 0.21 -0.21 0.56 -0.16 0.42 -0.14 0.35 -0.24 0.63 -0.04 0.14 -0.31 0.77 -0.04 0.1 -0.26 0.67 -0.12 0.33 -0.18 0.44 -0.21 0.56 -0.07 0.24 -0.31 0.77 -0.3 0.79 -0.09 0.21 -0.21 0.56 -0.19 0.44 -0.12 0.35 -0.25 0.66 -0.05 0.14 -0.3 0.77 -0.05 0.09 -0.26 0.7 -0.14 0.3 -0.16 0.47 -0.21 0.54 -0.09 0.25 -0.31 0.75 0 0.02 -0.3 0.77 -0.09 0.21 -0.21 0.59 -0.17 0.42 -0.14 0.35 -0.58 1.54 -0.05 0.09 -0.25 0.65 -0.12 0.31 -0.19 0.46 -0.21 0.52 -0.07 0.23 -0.3 0.75 -0.28 0.74 -0.09 0.19 -0.21 0.56 -0.17 0.4 -0.11 0.35 -0.24 0.58 -0.04 0.14 -0.28 0.72 -0.05 0.07 -0.23 0.63 -0.12 0.28 -0.16 0.45 -0.19 0.46 -0.09 0.24 -0.26 0.65 -0.02 0.02 -0.26 0.7 -0.07 0.17 -0.21 0.51 -0.14 0.35 -0.12 0.3 -0.21 0.54 -0.04 0.12 -0.26 0.65 -0.02 0.07 -0.24 0.56 -0.09 0.26 -0.14 0.37 -0.19 0.42 -0.07 0.21 -0.23 0.56 0 0.05 -0.23 0.58 -0.07 0.14 -0.17 0.44 -0.14 0.31 -0.09 0.28 -0.19 0.44 -0.04 0.09 -0.21 0.56 -0.03 0.05 -0.18 0.49 -0.1 0.19 -0.11 0.32 -0.14 0.33 -0.07 0.19 -0.21 0.46 0 0.03 -0.19 0.46z"/>
   <path class="fil3" d="M393.67 310.62c-18.83,31.85 -33.04,67.92 -39.76,108.62 -4.06,2.1 -8,4.52 -11.76,7.28 0,0 4.83,-1.5 11.09,-3.01l-0.77 5.55c-8.82,3.8 -18.06,9.24 -24.39,16.78 0,0 10.57,-7.33 19.35,-9.1 0,0 -14.38,6.72 -29.08,24.45 0,0 13.56,-12.46 26.98,-15.66 0,0 -24.76,22.85 -34.68,49.98l11.51 -4.15c0,0 -30.36,47.9 -30.66,59.73l30.03 -34.18c0,0 -9.27,16.61 -10.48,26.01 2.47,-3.17 18.32,-21.76 39.6,-39.94 1.3,32.85 1.79,63.21 2.19,91.42 64.63,-110.04 321.93,-179.41 283.27,42.21 -1.89,10.78 -5.04,20.62 -9.17,29.51 4.38,-10.92 7.6,-21.42 9.1,-31.08 1.19,-7.67 1.3,-14.86 0.14,-21.25 -10.22,-54.91 -260.59,-28.12 -301.89,14.93 -2.54,8.96 -23.29,21.4 -20.11,50.47 3.19,29.05 24.29,48.53 24.29,48.53 0,0 -1.94,0.66 -7.84,0.19 0,0 -0.47,13.25 18.22,19.62 0,0 -1.42,4.62 -8.14,2.08 0,0 4.92,14.54 19.15,17.9 0,0 -0.79,5.11 -6.23,3.33 0,0 7.61,10.04 16.8,18.16 1.36,4.41 2.83,8.75 4.41,13.02 -2.49,-0.17 -5.36,-0.7 -8.61,-1.78 0,0 4.55,4.34 11.37,8.89 17.5,42.94 47.99,79.8 101.68,115.13 -1.65,-3.78 -3.1,-7.82 -4.24,-12.13 -11.39,-42.54 0.42,-66.22 11.03,-77.75 2.03,-0.21 4.53,-0.65 7.45,-1.49 -11.11,18.55 -10.78,37.12 -3.29,54.88l-1.4 -2.62c40.2,93.73 130.03,69.49 169.98,49.33 -20.77,21.7 -57.03,36.07 -92.14,37.1 61.01,29.65 66.26,44.75 74.24,100.05 -16.87,-1.45 -33.43,-6.04 -49.67,-14.09 -0.59,-0.28 -1.57,-0.05 -3.48,-0.07 1.19,2.61 2.15,4.97 3.24,7.25 0.96,2.1 2.1,4.11 3.15,6.21l-2.4 1.96c-13.23,-9.31 -26.44,-18.6 -40.76,-28.68 1.51,7.24 2.89,13.79 4.27,20.33 -0.61,0.28 -1.19,0.56 -1.75,0.79 -7.82,-11.08 -16.66,-21.75 -23.2,-33.32 -12.41,-21.98 -25.85,-43.38 -47.88,-60.34 -11.01,-8.44 -23.12,-16.03 -36.68,-22.68 26.88,18.2 44.22,41.14 56.05,67.25 -1.52,0.42 -2.64,0.86 -2.78,0.7 -19.88,-21.26 -50.82,-32.44 -75.55,-49.28 -35.84,-24.43 -69.51,-50.19 -86.38,-86.61 -1.26,0.25 -2.52,0.53 -3.76,0.81 1.85,10.15 3.67,20.3 5.95,33 -15.54,-23.17 -30.89,-43.68 -27.9,-69.68 -1.4,0 -2.87,0 -4.27,-0.04 -1.5,6.58 -3.81,13.16 -4.32,19.81 -0.47,6.69 0.89,13.46 0.05,20.39 -19.95,-29.35 -33.09,-60.11 -28.35,-95.01 -11.34,12.18 -11.53,26.39 -14.26,43.05 -10.66,-15.61 -9.19,-30.62 -10.57,-45.2 -1.45,-15.35 4.2,-29.14 15.54,-42.19 -1.24,-0.49 -2.45,-0.95 -3.69,-1.44 -7.32,8.14 -14.6,16.31 -21.88,24.45 -1.26,-0.3 -2.55,-0.63 -3.83,-0.93 7.42,-18.11 14.82,-36.19 22.1,-53.97 -7.45,4.24 -15.71,9 -25.27,14.49 10.61,-25.25 20.39,-48.63 31.52,-75 -12.37,11.93 -20.67,24.29 -39.69,24.01 1.91,-3.87 12.69,-31.61 20.04,-50.89l3.08 -1c1.24,-0.42 2.5,-0.84 3.78,-1.31 2.2,-0.79 4.44,-1.61 6.68,-2.52 0,0 -2.78,-5.39 -6.4,-14.6l-0.25 -0.68 -0.89 -2.31c-14.44,-38.34 -37.78,-130.87 42.07,-191.07l0 -0.03 0.02 0c16.15,-32.57 44.36,-59.66 74.41,-85.96 8.19,-7.16 17.39,-11.92 26.67,-16.61zm287.33 300.74l0.02 0.09c-0.79,-6.51 -0.74,-12.6 0.28,-18.1 10.08,-54.23 254.27,-28.8 300.21,13.3 -9.57,-108.73 -346.59,-238.98 -300.51,4.71zm132 271.65c13.95,-20.54 22.23,-45.34 23.68,-68.98l0.12 -0.02 0.18 -0.02 0.19 0 0.14 -0.03 0.14 0 0.09 0 0.19 -0.02 0.12 -0.05 0.09 -0.09 0.05 -0.07 0.02 -0.02 0 -0.03 0.05 -0.11 0.02 -0.19 0 -0.19 0 -0.04 -0.02 -0.19 0 -0.07 -0.05 -0.16 -0.02 -0.14 -0.03 -0.05 0 -0.05 -0.07 -0.21 -0.02 -0.07 -0.07 -0.25 -0.02 0 -0.1 -0.31 -0.02 -0.04 -0.09 -0.24 -0.05 -0.11 -0.07 -0.19 -0.09 -0.16 -0.05 -0.14 -0.12 -0.24 -0.02 -0.04 -0.14 -0.31 -0.14 -0.28 -0.02 -0.07 0 -0.72 0.23 0.23 0 0.03 0.12 0.11 0.11 0.12 0 0.02 0.12 0.1 0.09 0.14 0.05 0.02 0.19 0.21 0.07 0.05 0.16 0.16 0.07 0.07 0.16 0.16 0.1 0.07 0.14 0.14 0.11 0.1 0.12 0.11 0.14 0.12 0.09 0.09 0.17 0.14 0.07 0.07 0.16 0.14 0.07 0.05 0.19 0.16 0.04 0.05 0.21 0.14 0.03 0.05 0.23 0.16 0.23 0.19 0.03 0 0.21 0.16 0.02 0.02 0.21 0.14 0.05 0.05 0.18 0.12 0.03 0 0.18 0.16 0.12 0.05 0.12 0.09 0.11 0.07 0.12 0.09 0.14 0.07 0.09 0.07 0.14 0.07 0.07 0.07 0.19 0.1 0.05 0.02 0.18 0.12 0.03 0.02 0.21 0.12 0.02 0 0.07 0.04 0.14 0.07 0 0.03 0.21 0.11 0.02 0 0.21 0.1 0.05 0.02 0.16 0.09 0.05 0.03 0.16 0.09 0.07 0.02 0.14 0.07 0.1 0.03 0.16 0.09 0.05 0.02 0.11 0.05 0.12 0.05 0.07 0.04 0.14 0.05 0.07 0.05 0.14 0.04 0.05 0.03 0.18 0.07 0 0.02 0.19 0.05 0.21 0.09 0.19 0.07 0.02 0 0.14 0.07 0.05 0 0.14 0.07 0.04 0 0.14 0.05 0.07 0.02 0.1 0.05 0.07 0 0.09 0.04 0.09 0.03 0.07 0.02 0.12 0.02 0.05 0.03 0.11 0.02 0.05 0.02 0.12 0.03 0.02 0.02 0.14 0.02 0.02 0.03 0.14 0.02 0.14 0.05 0.17 0.02 0.09 0.05 0.05 0 0.09 0.02 0.02 0 0.05 0 0.09 0.05 0.07 0 0.05 0.02 0.07 0 0.05 0.02 0.04 0 0.07 0.03 0.03 0 0.09 0.02 0.09 0 0.1 0.02 0.14 0 0.04 0 0.1 -0.04 0.04 -0.07 0.03 -0.1 0.02 -0.07 0 -0.09 -0.02 -0.19 -0.03 -0.11 -0.04 -0.12 -0.03 -0.14 -0.04 -0.12 -0.05 -0.16 -0.05 -0.09 -0.09 -0.21 -0.05 -0.1 -0.09 -0.23 -0.05 -0.09 -0.11 -0.28 -0.05 -0.05 -0.14 -0.33 -0.02 -0.02 -0.19 -0.35 -0.02 0 -0.19 -0.37 0 -0.03 -0.21 -0.37 -0.02 -0.05 -0.21 -0.32 -0.03 -0.07 -0.18 -0.31 -0.07 -0.11 -0.17 -0.28 -0.07 -0.12 -0.16 -0.26 -0.09 -0.16 -0.14 -0.21 -0.1 -0.19 -0.11 -0.16 -0.12 -0.21 -0.23 -0.37 -0.1 -0.12 -0.14 -0.21 -0.07 -0.09 -0.14 -0.24 -0.04 -0.07 -0.14 -0.23 -0.03 -0.05 -0.16 -0.23 0 -0.02 -0.07 -0.07 -0.07 -0.14 -0.02 0 -0.12 -0.19 0 -0.02 -0.12 -0.14 0 -0.03 -0.04 -0.09 0.18 0.12zm-174.23 152.22l-0.21 -0.04 -0.21 1.35 0.26 0.05 0.12 -0.7 0.04 -0.66zm0 -0.02l0 0.02 0 -0.02zm376.07 -371.65c-1.29,3.64 -1.82,7.46 -1.59,11.41 -1.61,3.61 -3.2,7.23 -3.71,10.73 -0.23,1.54 -0.26,3.03 0,4.53 0.42,1.93 1.28,3.85 2.52,5.74 -1.14,2.49 -2.12,5.01 -2.52,7.44 -8.12,-28.51 -16.33,-63.96 -23.38,-107.26 -8.96,-55.07 -47.83,-95.78 -98.33,-128.99 -24.68,-31.26 -46.06,-30.91 -52.01,-30.07l-0.72 -0.38c16.92,-12.41 50.49,-4.41 50.49,-4.41 -18.69,-10.45 -49.39,-9.1 -71.68,-6.18l-11.01 -5.27c14.28,-5.65 28.09,-4.83 28.09,-4.83 -10.33,-2.66 -22.56,-1.47 -34.88,1.63 -67.41,-31.43 -136.87,-57.77 -179.43,-89.9 -34.72,-26.18 -46.44,-49.8 -47.02,-69.47 22.89,-3.15 46.9,-1.42 71.8,4.44 21.35,4.97 35.44,15.96 43.33,31.71 0.63,1.26 2.17,2.24 3.29,3.33 0.7,-0.23 1.37,-0.49 2.07,-0.74 -2.94,-9.22 -5.88,-18.41 -8.79,-27.63 2.28,-1.31 1.77,-1 4.08,-2.31 15.91,20 31.83,39.97 47.74,59.97 0.37,-0.26 0.26,-0.19 0.63,-0.45l-0.21 -0.46 -0.23 -0.47 -0.21 -0.47 -0.24 -0.46 -0.21 -0.49 -0.23 -0.47 -0.21 -0.47 -0.23 -0.46 -0.21 -0.47 -0.24 -0.47 -0.21 -0.46 -0.23 -0.47 -0.21 -0.47 0 -0.02 -0.23 -0.47 -0.21 -0.46 -0.24 -0.47 -0.21 -0.47 -0.23 -0.46 -0.21 -0.47 -0.23 -0.47 -0.21 -0.46 0 -0.03 -0.24 -0.44 0 -0.02 -0.21 -0.47 -0.23 -0.47 -0.21 -0.46 -0.23 -0.47 -0.21 -0.47 -0.24 -0.46 -0.21 -0.47 0 -0.02 -0.23 -0.45 0 -0.02 -0.21 -0.47 -0.23 -0.46 -0.21 -0.47 -0.24 -0.47 -0.21 -0.46 -0.23 -0.47 0 -0.02 -0.21 -0.45 0 -0.02 -0.23 -0.44 0 -0.03 -0.21 -0.44 0 -0.02 -0.24 -0.47 -0.21 -0.47 -0.23 -0.46 -0.23 -0.47 -0.21 -0.47 0 -0.02 -0.24 -0.44 0 -0.03 -0.21 -0.44 0 -0.02 -0.23 -0.47 -0.21 -0.47 -0.23 -0.46 -0.21 -0.47 -0.24 -0.47 -0.21 -0.46 0 -0.03 -0.23 -0.44 0 -0.02 -0.21 -0.47 -0.23 -0.47 -0.24 -0.46 -0.21 -0.47 -0.23 -0.47 -0.21 -0.46 -0.23 -0.47 0 -0.02 -0.21 -0.47 -0.24 -0.47 -0.21 -0.46 -0.23 -0.47c1.07,-0.68 2.12,-1.33 3.2,-2.01 25.29,37.55 62.83,66.04 108.43,89.09 -4.53,-9.15 -8.96,-18.11 -13.4,-27.04 14.75,9.98 26.02,21.37 40.02,30.24 13.93,8.79 30.64,15.07 46.11,22.42 -2.34,-7.96 -5.02,-17.08 -8.31,-28.19 33.23,17.71 44.01,46.55 53.71,73.83 0.14,-0.02 0.31,-0.09 0.52,-0.19l3.64 2.01 2.89 1.7 1.12 0.68 2.47 1.56 0.4 0.24 2.92 1.91 0.37 0.26 3.2 2.24 0.56 0.42 2.52 1.89 1.42 1.09 1.56 1.26 2.22 1.85 0.65 0.56 2.78 2.45 0.16 0.16 3.18 2.96 0.28 0.28 1.65 1.66 1.64 1.68 0.86 0.91 0.75 0.82 1.65 1.82 2.31 2.68 0.54 0.63 1.68 2.08 1.17 1.47 0.98 1.28 0.53 0.75 1.5 2.03 1.98 2.82 0.23 0.35 1.64 2.5 0.77 1.19 1.02 1.68 1.24 2.05 0.49 0.84 1.63 2.94 0.03 0 1.54 2.94 0.46 0.89 1.03 2.07 0.86 1.78 0.56 1.21 1.22 2.66 0.14 0.33 1.26 3.01 0.23 0.56 0.98 2.45 0.56 1.44 0.58 1.59 0.84 2.36 0.24 0.7 1 3.03 0.07 0.21 0.89 2.82 0.32 1.1 0.56 1.96 0.05 0.19 0.77 2.87 0.75 2.87 0.02 0.16 0.72 3.03 0.66 3.04 0.35 1.63 0.25 1.38 0.49 2.52 0.07 0.49 0.98 5.99 0.19 1.24 0.23 1.73 0.28 2.1 0.1 0.84 0.32 2.91 0 0.03 0.28 2.87 0.1 0.88 0.14 1.99 0.39 5.36 0 0.31 0.14 2.77 0.03 0.52 0.07 2.24 0.04 1.3 0.03 1.4 0.04 2.08 0 0.58 0 2.64 0 2.59 0 0.96 -0.04 1.6 -0.03 1.66 -0.04 0.84 -0.07 2.33 0 0.12 -0.12 2.4 -0.02 0.59 -0.1 1.75 -0.07 1.26 -0.07 1.05 -0.11 1.86 -0.05 0.38 -0.19 2.17 -0.18 2.12 -0.07 0.89 -0.12 1.16c-4.13,3.39 -8.49,8.03 -10.48,13.65 -2.05,5.09 -2.8,10.55 -2.19,16.2 0.23,1.79 0.58,3.59 1.1,5.39l0.35 1.12z"/>
   <path class="fil4" d="M311.05 542.92c4.48,-5.74 52.69,-61.97 97.74,-74.73 0,0 12.11,-18.85 49.82,-15.66 0,0 -11.01,-9.91 -9.4,-9.42 1.58,0.49 33.85,3.17 43.84,6.69l-4.88 -10.38c0,0 17.32,2.5 25.32,7.91 0,0 -5.74,-15.21 -3.97,-12.67 1.75,2.57 15.96,10.38 18.2,12.32 0,0 -2.24,-10.08 -0.95,-11.34 1.26,-1.28 -25.39,-30.85 -47.74,-33.25l22.02 16.45c0,0 -33.39,-22.52 -55.74,-17.87 0,0 15.96,5.76 20.6,9.75 0,0 -76.48,-18.88 -123.76,15.8 0,0 27.96,-8.64 35.94,-5.28 0,0 -34.19,5.74 -50.01,24.6 0,0 10.57,-7.33 19.35,-9.1 0,0 -14.38,6.72 -29.08,24.45 0,0 13.56,-12.46 26.98,-15.66 0,0 -24.76,22.85 -34.68,49.98l11.51 -4.15c0,0 -30.36,47.9 -30.66,59.73l30.03 -34.18c0,0 -9.27,16.61 -10.48,26.01z"/>
   <path class="fil4" d="M710.17 426.42c0,0 5.13,-25.55 24.92,-31.61l31.31 -32.58 -2.87 9.57c0,0 62.25,-40.55 99.63,-30.96 0,0 -26.83,-1.61 -44.4,15 0,0 67.08,-16.59 99,1.28 0,0 -34.81,-8.3 -51.4,5.11 0,0 48.23,-14.04 89.74,99.01 0,0 -49.19,-61 -112.42,-54.3 0,0 12.76,-8.94 8.61,-8.94 -4.13,0 -22.66,-4.15 -60.67,7.03 0,0 9.59,-12.16 7.03,-10.55 -2.57,1.59 -41.84,9.57 -51.73,26.51l-3.2 -6.4c0,0 -7.65,0.31 -7.35,7.03 0,0 -3.94,-9.41 -1.91,-18.83 0,0 -8.64,0.95 -24.29,23.63z"/>
   <path class="fil5" d="M983.19 608.28c2.54,8.96 23.29,21.4 20.11,50.47 -3.19,29.05 -24.26,48.53 -24.26,48.53 0,0 1.91,0.66 7.81,0.19 0,0 0.47,13.25 -18.2,19.62 0,0 1.4,4.62 8.12,2.08 0,0 -4.92,14.54 -19.15,17.9 0,0 0.79,5.11 6.23,3.33 0,0 -19.63,25.9 -34,28.12 0,0 7.02,6.07 21.4,1.28 0,0 -20.44,19.49 -39.3,19.16l3.2 7.02 -16.29 0 6.4 7.03c0,0 -24.6,-2.85 -32.27,-8.29 0,0 10.24,11.16 24.59,10.85 0,0 -41.18,2.24 -52.69,-7.98 0,0 6.07,8.94 4.16,8.61 -1.92,-0.32 -8.33,-1.91 -13.42,-8.61 0,0 3.85,6.37 1.91,6.37 -1.91,0 -20.74,3.53 -50.14,-25.55 -29.38,-29.05 -116.29,-140.16 -106.1,-195.06 10.22,-54.93 260.59,-28.12 301.89,14.93z"/>
   <path class="fil4" d="M735.46 778.22c-14.05,-2.38 -72.03,-11.81 -126.44,5.18 0,0 40.76,10.89 126.44,-5.18z"/>
   <path class="fil5" d="M334.29 628.72c-2.54,8.96 -23.29,21.4 -20.11,50.47 3.19,29.05 24.29,48.53 24.29,48.53 0,0 -1.94,0.66 -7.84,0.19 0,0 -0.47,13.25 18.22,19.62 0,0 -1.42,4.62 -8.14,2.08 0,0 4.92,14.54 19.15,17.9 0,0 -0.79,5.11 -6.23,3.33 0,0 19.63,25.9 34,28.12 0,0 -7.02,6.07 -21.4,1.28 0,0 20.44,19.49 39.3,19.16l-3.2 7.02 16.29 0 -6.4 7.03c0,0 24.6,-2.85 32.27,-8.29 0,0 -10.24,11.16 -24.59,10.85 0,0 41.21,2.24 52.69,-7.98 0,0 -6.07,8.94 -4.16,8.61 1.92,-0.32 8.33,-1.91 13.42,-8.61 0,0 -3.85,6.37 -1.91,6.37 1.91,0 20.76,3.53 50.14,-25.55 25.95,-25.66 96.86,-115.38 105.96,-173.81 1.19,-7.67 1.3,-14.86 0.14,-21.25 -10.22,-54.91 -260.59,-28.12 -301.89,14.93z"/>
   <path class="fil4" d="M667.37 865.41c-3.85,-1.91 -12.13,-14.04 -41.2,-18.52 -29.08,-4.46 -62.93,-25.88 -49.19,-53.97 13.74,-28.12 93.92,-41.54 153.63,-29.4 59.71,12.15 33.22,50.49 0.95,65.17 -32.24,14.7 -47.6,33.53 -47.6,33.53l-1.26 40.2c0,0 20.42,21.07 54.93,21.07 34.49,0 63.02,-23.89 75.69,-41.21 0,0 -29.61,68.25 -118.2,44.78 -16.43,-4.36 -13.26,-5.97 -27.68,2.68 -33.76,20.23 -135.17,56.68 -178.61,-44.59 0,0 30.75,63.35 99.02,61.37 25.09,-0.72 52.71,-8.7 80.15,-40.27l-0.63 -40.84z"/>
  </g>
 </g>
</svg>
