<?xml version="1.0" encoding="UTF-8"?>
<!DOCTYPE svg PUBLIC "-//W3C//DTD SVG 1.1//EN" "http://www.w3.org/Graphics/SVG/1.1/DTD/svg11.dtd">
<!-- Creator: CorelDRAW 2018 (64 Bit) -->
<svg xmlns="http://www.w3.org/2000/svg" xml:space="preserve" width="12.6998mm" height="12.6998mm" version="1.1" style="shape-rendering:geometricPrecision; text-rendering:geometricPrecision; image-rendering:optimizeQuality; fill-rule:evenodd; clip-rule:evenodd"
viewBox="0 0 1269.98 1269.98"
 xmlns:xlink="http://www.w3.org/1999/xlink">
 <defs>
  <style type="text/css">
   <![CDATA[
    .fil0 {fill:none}
    .fil1 {fill:#BEBCBC}
    .fil2 {fill:#ECECEC}
    .fil3 {fill:#EFEFEF;fill-rule:nonzero}
    .fil4 {fill:#BEBCBC;fill-rule:nonzero}
   ]]>
  </style>
   <clipPath id="id0">
    <path d="M634.98 33.86l209.29 88.03 209.31 88.03 86.69 212.54 86.69 212.53 -86.69 212.52 -86.69 212.54 -209.31 88.03 -209.29 88.03 -209.29 -88.03 -209.31 -88.03 -86.69 -212.54 -86.7 -212.52 86.7 -212.53 86.69 -212.54 209.31 -88.03 209.29 -88.03z"/>
   </clipPath>
    <clipPath id="id1">
    </clipPath>
    <clipPath id="id2">
     <path d="M634.98 33.86l209.29 88.03 209.31 88.03 86.69 212.54 86.69 212.53 -86.69 212.52 -86.69 212.54 -209.31 88.03 -209.29 88.03 -209.29 -88.03 -209.31 -88.03 -86.69 -212.54 -86.7 -212.52 86.7 -212.53 86.69 -212.54 209.31 -88.03 209.29 -88.03z"/>
    </clipPath>
 </defs>
 <g id="Camada_x0020_1">
  <metadata id="CorelCorpID_0Corel-Layer"/>
  <rect class="fil0" x="-0.01" y="-0.01" width="1270" height="1270"/>
  <polygon class="fil1" points="634.98,33.86 844.27,121.89 1053.58,209.92 1140.27,422.46 1226.96,634.99 1140.27,847.51 1053.58,1060.05 844.27,1148.08 634.98,1236.11 425.69,1148.08 216.38,1060.05 129.69,847.51 42.99,634.99 129.69,422.46 216.38,209.92 425.69,121.89 "/>
  <g style="clip-path:url(#id0)">
   <g id="_1966378274224">
    <path id="1" class="fil2" d="M230.64 671.53l-0.44 5.66 0.6 -0.02 0.21 -0.02 0.62 -0.03 0.19 -0.02 0.62 -0.05 0.16 -0.02 0.65 -0.05 0.12 -0.02 0.67 -0.09 0.09 -0.03 0.67 -0.09 0.07 0 0.69 -0.14 0.05 0 0.72 -0.14 0.71 -0.16 0.03 0 0.67 -0.16 0.04 -0.02 0.65 -0.16 0.07 -0.03 0.62 -0.18 0.1 -0.03 0.57 -0.18 0.12 -0.05 0.53 -0.18 0.14 -0.05 0.51 -0.18 0.16 -0.07 0.49 -0.19 0.18 -0.07 0.44 -0.18 0.21 -0.09 0.41 -0.19 0.24 -0.09 0.39 -0.19 0.23 -0.11 0.37 -0.19 0.25 -0.14 0.35 -0.18 0.28 -0.14 0.32 -0.16 0.3 -0.19 0.28 -0.16 0.32 -0.18 0.26 -0.14 0.32 -0.21 0.26 -0.14 0.34 -0.23 0.21 -0.14 0.37 -0.23 0.19 -0.14 0.39 -0.25 0.16 -0.12 0.42 -0.3 0.14 -0.09 0.41 -0.3 0.14 -0.09 0.42 -0.33 0.11 -0.09 0.44 -0.35 0.09 -0.07 0.47 -0.37 0.07 -0.04 0.48 -0.4 0.05 -0.02 0.48 -0.41 0.03 -0.03 0.53 -0.44 0.51 -0.46 0.02 0 0.48 -0.44 0.05 -0.05 0.46 -0.41 0.07 -0.07 0.46 -0.42 0.07 -0.07 0.42 -0.39 0.09 -0.09 0.42 -0.39 0.11 -0.12 0.4 -0.37 0.14 -0.12 0.37 -0.37 0.14 -0.16 0.37 -0.34 0.16 -0.17 0.34 -0.32 0.19 -0.18 0.3 -0.33 0.21 -0.21 0.3 -0.3 0.23 -0.23 0.28 -0.28 0.25 -0.25 0.26 -0.25 0.25 -0.28 0.25 -0.26 0.28 -0.27 0.23 -0.23 0.3 -0.33 0.21 -0.21 0.32 -0.32 0.19 -0.21 0.35 -0.35 0.16 -0.16 0.37 -0.39 0.16 -0.14 0.39 -0.39 0.12 -0.14 0.41 -0.42 0.12 -0.11 0.44 -0.44 0.09 -0.09 0.46 -0.47 0.07 -0.07 0.49 -0.48 0.05 -0.07 0.5 -0.49 0.05 -0.04 0.51 -0.51 0.02 -0.02 0.56 -0.54c-11.03,26.13 -20.72,49.3 -31.24,74.31 9.48,-5.43 17.67,-10.15 25.04,-14.36 -7.21,17.62 -14.54,35.54 -21.89,53.48 1.27,0.3 2.54,0.62 3.79,0.92 7.21,-8.06 14.43,-16.16 21.68,-24.22 1.23,0.48 2.43,0.94 3.66,1.43 -11.24,12.92 -16.83,26.59 -15.4,41.8 1.36,14.45 -0.09,29.31 10.47,44.78 2.71,-16.51 2.89,-30.59 14.13,-42.65 -4.69,34.58 8.32,65.05 28.09,94.14 0.83,-6.87 -0.51,-13.57 -0.05,-20.21 0.51,-6.59 2.8,-13.11 4.28,-19.63 1.39,0.05 2.84,0.05 4.23,0.05 -2.96,25.76 12.25,46.08 27.65,69.04 -2.26,-12.58 -4.07,-22.64 -5.89,-32.7 1.22,-0.27 2.47,-0.55 3.72,-0.8 16.71,36.09 50.08,61.61 85.59,85.82 24.51,16.69 55.16,27.76 74.86,48.83 0.14,0.16 1.25,-0.28 2.75,-0.7 -11.72,-25.87 -28.9,-48.6 -55.53,-66.63 13.43,6.59 25.43,14.1 36.34,22.47 21.83,16.81 35.14,38.01 47.44,59.79 6.48,11.47 15.24,22.03 22.98,33.02 0.56,-0.24 1.14,-0.51 1.74,-0.79 -1.37,-6.47 -2.73,-12.97 -4.23,-20.14 14.19,9.99 27.28,19.19 40.39,28.42l2.38 -1.95c-1.04,-2.08 -2.17,-4.06 -3.12,-6.15 -1.09,-2.26 -2.04,-4.6 -3.22,-7.19 1.9,0.03 2.87,-0.2 3.45,0.07 39.51,19.59 81.01,18.36 123.81,1.92 10.15,-3.9 18.12,-9.15 24.13,-15.67 4.93,-5.32 8.53,-11.49 10.89,-18.38 0.42,-1.21 1.64,-2.27 2.52,-3.4 0.65,0.14 1.3,0.32 1.94,0.44 -1.59,8.95 -3.19,17.94 -4.76,26.93 1.34,0.26 2.71,0.6 4.02,0.88 11.86,-20.02 23.7,-40 35.56,-60.02 0.23,0.02 0.49,0.02 0.77,0.02l-9.18 29.09c1.01,0.51 2.03,0.99 3.03,1.5 18.26,-37.22 48.48,-67.65 86.53,-94.05 -3.03,8.88 -5.94,17.53 -8.83,26.22 12.02,-10.82 20.72,-22.54 32.23,-32.3 11.42,-9.64 25.59,-17.36 38.59,-25.87 -1.18,7.51 -2.55,16.16 -4.17,26.63 27.63,-20.04 38.27,-44.16 43.82,-70.14 1.2,0.09 2.42,0.16 3.65,0.23l2.64 32.81c24.94,-28.86 19,-58.84 25.98,-87.35 2.48,8.83 4.95,17.73 7.42,26.61 1.02,-0.16 2.06,-0.3 3.06,-0.46 -0.54,-25.13 -1.02,-50.26 -1.53,-75.35 8.18,5.71 15.63,10.87 23.1,16.05 -9.44,-37.5 -10.96,-51.45 -4.74,-64.48 5.01,2.26 9.82,4.57 14.79,6.7 4.19,1.83 8.53,3.47 15.1,6.1 0.58,0.19 1.16,0.44 1.71,0.67 -1.8,-2.15 -3.58,-4.27 -5.27,-6.42 -19.31,-24.28 -30.43,-48.58 -31.14,-75.95 5.38,2.13 10.77,4.23 17.01,6.66 3.08,1.2 6.38,2.49 9.99,3.9 -4.81,-6.12 -10.08,-10.89 -13.34,-15.56 -1.48,-2.12 -2.52,-4.23 -2.98,-6.4 -0.26,-1.48 -0.23,-2.96 0,-4.48 0.85,-5.81 4.69,-12 6.59,-17.83 0.11,0.12 0.25,0.3 0.34,0.49 -0.8,-1.92 -1.5,-3.82 -2.03,-5.72 -0.51,-1.78 -0.86,-3.56 -1.09,-5.34 -0.6,-5.59 0.14,-11 2.18,-16.04 1.96,-5.57 6.29,-10.17 10.38,-13.53 4.25,-42.77 2.15,-129.44 -75.49,-170.92 -0.21,0.09 -0.37,0.16 -0.51,0.18 -9.61,-27.02 -20.3,-55.6 -53.22,-73.15 3.26,11.01 5.92,20.05 8.23,27.93 -15.33,-7.28 -31.88,-13.5 -45.68,-22.22 -13.87,-8.78 -25.04,-20.06 -39.65,-29.96 4.39,8.86 8.78,17.73 13.27,26.8 -45.18,-22.85 -82.38,-51.07 -107.44,-88.27 -1.06,0.67 -2.1,1.31 -3.17,1.98 4.72,9.95 9.41,19.86 14.08,29.78 -0.37,0.26 -0.25,0.19 -0.62,0.44 -15.77,-19.81 -31.54,-39.6 -47.3,-59.42 -2.29,1.3 -1.78,1 -4.05,2.29 2.89,9.13 5.8,18.24 8.72,27.38 -0.7,0.25 -1.37,0.5 -2.06,0.74 -1.11,-1.09 -2.64,-2.06 -3.26,-3.31 -7.82,-15.61 -21.78,-26.5 -42.93,-31.42 -24.67,-5.8 -48.46,-7.51 -71.14,-4.39 -22.36,3.07 -43.65,10.82 -63.7,24 -0.58,0.37 -2.66,1.78 -3.7,0.57l2.06 -16.18c0.05,-0.32 -0.25,-0.58 -0.53,-0.49 -22.89,7.36 -22.04,28.28 -39.49,35.86 -0.97,0.42 1.94,-6.96 2.77,-13.66 0.42,-3.33 0.35,-6.5 -0.97,-8.44 -0.41,-0.62 -1.38,-0.88 -2.06,-0.58 -8.83,4.03 -17.47,16.46 -24.99,31.4 -14.08,27.84 -24.37,64.3 -25.24,70.61 -1.48,10.66 -1.14,-45.09 -1.92,-43.1 -8.42,20.67 -20.86,31.03 -34.24,38.82 -13.69,7.95 -28.35,13.22 -40.67,24 -29.78,26.05 -57.73,52.9 -73.73,85.17l-0.02 0 0 0.02c-79.12,59.65 -56,151.35 -41.69,189.33l0.88 2.29 0.25 0.67c3.59,9.13 6.34,14.47 6.34,14.47 -2.22,0.91 -4.44,1.72 -6.61,2.5 -1.27,0.46 -2.52,0.88 -3.75,1.3l-3.05 0.99 -0.28 0.69 -0.07 0.21 -0.18 0.51 -0.16 0.39 -0.12 0.33 -0.23 0.6 -0.05 0.11 -0.27 0.72 -0.05 0.12 -0.23 0.62 -0.12 0.32 -0.16 0.42 -0.21 0.53 -0.09 0.21 -0.28 0.74 -0.27 0.76 -0.1 0.21 -0.2 0.56 -0.17 0.41 -0.14 0.35 -0.23 0.62 -0.04 0.14 -0.3 0.76 -0.05 0.1 -0.25 0.67 -0.12 0.32 -0.18 0.44 -0.21 0.56 -0.07 0.23 -0.3 0.76 -0.3 0.79 -0.1 0.2 -0.2 0.56 -0.19 0.44 -0.11 0.34 -0.26 0.65 -0.04 0.14 -0.31 0.76 -0.04 0.1 -0.26 0.69 -0.13 0.3 -0.17 0.46 -0.2 0.53 -0.1 0.26 -0.3 0.74 0 0.02 -0.3 0.76 -0.09 0.21 -0.21 0.58 -0.16 0.42 -0.14 0.34 -0.58 1.53 -0.04 0.09 -0.26 0.65 -0.11 0.3 -0.19 0.46 -0.21 0.51 -0.07 0.23 -0.3 0.74 -0.27 0.74 -0.1 0.19 -0.2 0.55 -0.17 0.39 -0.11 0.35 -0.23 0.58 -0.05 0.14 -0.28 0.72 -0.04 0.06 -0.23 0.63 -0.12 0.28 -0.16 0.44 -0.19 0.46 -0.09 0.23 -0.25 0.65 -0.03 0.02 -0.25 0.69 -0.07 0.16 -0.21 0.51 -0.14 0.35 -0.11 0.3 -0.21 0.53 -0.05 0.12 -0.25 0.65 -0.02 0.06 -0.24 0.56 -0.09 0.25 -0.14 0.37 -0.18 0.42 -0.07 0.21 -0.23 0.55 0 0.05 -0.23 0.58 -0.07 0.14 -0.16 0.44 -0.14 0.3 -0.1 0.27 -0.18 0.44 -0.05 0.1 -0.2 0.55 -0.03 0.05 -0.18 0.48 -0.1 0.19 -0.11 0.32 -0.14 0.32 -0.07 0.19 -0.21 0.46 0 0.02 -0.18 0.47z"/>
    <path class="fil3" d="M395.87 313.59c-18.65,31.56 -32.73,67.3 -39.39,107.62 -4.02,2.08 -7.93,4.48 -11.65,7.21 0,0 4.78,-1.48 10.98,-2.98l-0.76 5.5c-8.74,3.77 -17.9,9.16 -24.16,16.63 0,0 10.47,-7.26 19.16,-9.02 0,0 -14.24,6.66 -28.81,24.23 0,0 13.44,-12.35 26.73,-15.51 0,0 -24.53,22.63 -34.36,49.52l11.4 -4.12c0,0 -30.08,47.47 -30.38,59.19l29.76 -33.87c0,0 -9.18,16.46 -10.38,25.78 2.45,-3.15 18.15,-21.57 39.23,-39.58 1.3,32.55 1.78,62.63 2.18,90.58 64.04,-109.03 318.98,-177.77 280.67,41.82 -1.87,10.68 -5,20.44 -9.09,29.25 4.35,-10.82 7.54,-21.22 9.02,-30.8 1.18,-7.6 1.29,-14.72 0.14,-21.06 -10.13,-54.4 -258.2,-27.86 -299.12,14.8 -2.53,8.88 -23.08,21.2 -19.93,50.01 3.16,28.78 24.06,48.09 24.06,48.09 0,0 -1.92,0.64 -7.76,0.18 0,0 -0.47,13.13 18.05,19.44 0,0 -1.41,4.58 -8.07,2.06 0,0 4.88,14.41 18.98,17.73 0,0 -0.78,5.07 -6.17,3.31 0,0 7.54,9.94 16.65,17.99 1.34,4.37 2.79,8.67 4.37,12.9 -2.48,-0.16 -5.32,-0.69 -8.53,-1.76 0,0 4.5,4.3 11.26,8.81 17.33,42.54 47.55,79.07 100.75,114.07 -1.64,-3.74 -3.07,-7.74 -4.21,-12.02 -11.28,-42.15 0.42,-65.61 10.94,-77.03 2.01,-0.21 4.48,-0.65 7.37,-1.48 -11,18.38 -10.68,36.78 -3.26,54.37l-1.38 -2.59c39.83,92.88 128.84,68.86 168.42,48.88 -20.57,21.5 -56.5,35.74 -91.3,36.76 60.46,29.39 65.66,44.34 73.57,99.14 -16.71,-1.44 -33.13,-5.99 -49.22,-13.97 -0.58,-0.27 -1.55,-0.04 -3.45,-0.07 1.18,2.59 2.13,4.93 3.22,7.19 0.95,2.09 2.08,4.07 3.12,6.15l-2.38 1.95c-13.11,-9.23 -26.2,-18.43 -40.39,-28.42 1.5,7.17 2.86,13.67 4.23,20.14 -0.6,0.28 -1.18,0.55 -1.74,0.79 -7.74,-10.99 -16.5,-21.55 -22.98,-33.02 -12.3,-21.78 -25.61,-42.98 -47.44,-59.79 -10.91,-8.37 -22.91,-15.88 -36.34,-22.47 26.63,18.03 43.81,40.76 55.53,66.63 -1.5,0.42 -2.61,0.86 -2.75,0.7 -19.7,-21.07 -50.35,-32.14 -74.86,-48.83 -35.51,-24.21 -68.88,-49.73 -85.59,-85.82 -1.25,0.25 -2.5,0.53 -3.72,0.8 1.82,10.06 3.63,20.12 5.89,32.7 -15.4,-22.96 -30.61,-43.28 -27.65,-69.04 -1.39,0 -2.84,0 -4.23,-0.05 -1.48,6.52 -3.77,13.04 -4.28,19.63 -0.46,6.64 0.88,13.34 0.05,20.21 -19.77,-29.09 -32.78,-59.56 -28.09,-94.14 -11.24,12.06 -11.42,26.14 -14.13,42.65 -10.56,-15.47 -9.11,-30.33 -10.47,-44.78 -1.43,-15.21 4.16,-28.88 15.4,-41.8 -1.23,-0.49 -2.43,-0.95 -3.66,-1.43 -7.25,8.06 -14.47,16.16 -21.68,24.22 -1.25,-0.3 -2.52,-0.62 -3.79,-0.92 7.35,-17.94 14.68,-35.86 21.89,-53.48 -7.37,4.21 -15.56,8.93 -25.04,14.36 10.52,-25.01 20.21,-48.18 31.24,-74.31 -12.26,11.82 -20.49,24.07 -39.33,23.79 1.9,-3.83 12.58,-31.32 19.86,-50.42l3.05 -0.99c1.23,-0.42 2.48,-0.84 3.75,-1.3 2.17,-0.78 4.39,-1.59 6.61,-2.5 0,0 -2.75,-5.34 -6.34,-14.47l-0.25 -0.67 -0.88 -2.29c-14.31,-37.98 -37.43,-129.68 41.69,-189.33l0 -0.02 0.02 0c16,-32.27 43.95,-59.12 73.73,-85.17 8.11,-7.1 17.22,-11.82 26.42,-16.46zm284.7 297.99l0.02 0.09c-0.78,-6.45 -0.74,-12.48 0.28,-17.94 9.99,-53.73 251.94,-28.53 297.46,13.18 -9.48,-107.74 -343.42,-236.8 -297.76,4.67zm130.79 269.16c13.82,-20.35 22.03,-44.92 23.47,-68.34l0.11 -0.03 0.19 -0.02 0.18 0 0.14 -0.02 0.14 0 0.09 0 0.19 -0.03 0.11 -0.04 0.09 -0.1 0.05 -0.06 0.02 -0.03 0 -0.02 0.05 -0.12 0.02 -0.18 0 -0.19 0 -0.04 -0.02 -0.19 0 -0.07 -0.05 -0.16 -0.02 -0.14 -0.02 -0.04 0 -0.05 -0.07 -0.21 -0.03 -0.07 -0.06 -0.25 -0.03 0 -0.09 -0.3 -0.02 -0.05 -0.1 -0.23 -0.04 -0.12 -0.07 -0.18 -0.09 -0.16 -0.05 -0.14 -0.12 -0.23 -0.02 -0.05 -0.14 -0.3 -0.14 -0.28 -0.02 -0.07 0 -0.71 0.23 0.23 0 0.02 0.12 0.12 0.11 0.11 0 0.03 0.12 0.09 0.09 0.14 0.05 0.02 0.18 0.21 0.07 0.04 0.16 0.17 0.07 0.07 0.16 0.16 0.1 0.07 0.14 0.14 0.11 0.09 0.12 0.11 0.14 0.12 0.09 0.09 0.16 0.14 0.07 0.07 0.16 0.14 0.07 0.04 0.19 0.17 0.04 0.04 0.21 0.14 0.02 0.05 0.23 0.16 0.24 0.18 0.02 0 0.21 0.17 0.02 0.02 0.21 0.14 0.04 0.04 0.19 0.12 0.02 0 0.19 0.16 0.11 0.05 0.12 0.09 0.11 0.07 0.12 0.09 0.14 0.07 0.09 0.07 0.14 0.07 0.07 0.07 0.18 0.09 0.05 0.03 0.18 0.11 0.03 0.02 0.21 0.12 0.02 0 0.07 0.05 0.14 0.07 0 0.02 0.21 0.11 0.02 0 0.21 0.1 0.04 0.02 0.16 0.09 0.05 0.03 0.16 0.09 0.07 0.02 0.14 0.07 0.09 0.02 0.17 0.1 0.04 0.02 0.12 0.05 0.11 0.04 0.07 0.05 0.14 0.04 0.07 0.05 0.14 0.05 0.05 0.02 0.18 0.07 0 0.02 0.18 0.05 0.21 0.09 0.19 0.07 0.02 0 0.14 0.07 0.05 0 0.13 0.07 0.05 0 0.14 0.05 0.07 0.02 0.09 0.04 0.07 0 0.09 0.05 0.1 0.02 0.07 0.03 0.11 0.02 0.05 0.02 0.11 0.03 0.05 0.02 0.11 0.02 0.03 0.03 0.14 0.02 0.02 0.02 0.14 0.03 0.14 0.04 0.16 0.02 0.09 0.05 0.05 0 0.09 0.02 0.02 0 0.05 0 0.09 0.05 0.07 0 0.05 0.02 0.07 0 0.04 0.03 0.05 0 0.07 0.02 0.02 0 0.09 0.02 0.1 0 0.09 0.03 0.14 0 0.04 0 0.1 -0.05 0.04 -0.07 0.03 -0.09 0.02 -0.07 0 -0.09 -0.02 -0.19 -0.03 -0.11 -0.04 -0.12 -0.03 -0.14 -0.04 -0.11 -0.05 -0.17 -0.05 -0.09 -0.09 -0.21 -0.04 -0.09 -0.1 -0.23 -0.04 -0.09 -0.12 -0.28 -0.04 -0.05 -0.14 -0.32 -0.03 -0.02 -0.18 -0.35 -0.02 0 -0.19 -0.37 0 -0.02 -0.21 -0.37 -0.02 -0.05 -0.21 -0.32 -0.02 -0.07 -0.19 -0.3 -0.07 -0.12 -0.16 -0.28 -0.07 -0.11 -0.16 -0.26 -0.09 -0.16 -0.14 -0.21 -0.09 -0.18 -0.12 -0.16 -0.11 -0.21 -0.24 -0.37 -0.09 -0.12 -0.14 -0.2 -0.07 -0.1 -0.13 -0.23 -0.05 -0.07 -0.14 -0.23 -0.02 -0.04 -0.16 -0.24 0 -0.02 -0.07 -0.07 -0.07 -0.14 -0.03 0 -0.11 -0.18 0 -0.03 -0.12 -0.13 0 -0.03 -0.04 -0.09 0.18 0.12zm-172.63 150.83l-0.21 -0.05 -0.21 1.34 0.25 0.05 0.12 -0.69 0.05 -0.65zm0 -0.02l0 0.02 0 -0.02zm372.62 -368.26c-1.27,3.61 -1.81,7.4 -1.58,11.31 -1.59,3.58 -3.16,7.17 -3.67,10.64 -0.23,1.52 -0.26,3 0,4.48 0.41,1.92 1.27,3.82 2.5,5.69 -1.14,2.47 -2.11,4.97 -2.5,7.37 -8.05,-28.25 -16.19,-63.37 -23.17,-106.28 -8.88,-54.56 -47.39,-94.91 -97.42,-127.8 -24.46,-30.98 -45.64,-30.64 -51.54,-29.81l-0.71 -0.37c16.76,-12.3 50.03,-4.37 50.03,-4.37 -18.52,-10.35 -48.95,-9.01 -71.03,-6.12l-10.91 -5.23c14.15,-5.59 27.84,-4.78 27.84,-4.78 -10.25,-2.64 -22.36,-1.46 -34.57,1.62 -66.79,-31.15 -135.62,-57.25 -177.79,-89.09 -34.4,-25.94 -46.01,-49.33 -46.58,-68.82 22.68,-3.12 46.47,-1.41 71.14,4.39 21.15,4.92 35.11,15.81 42.93,31.42 0.62,1.25 2.15,2.22 3.26,3.31 0.69,-0.24 1.36,-0.49 2.06,-0.74 -2.92,-9.14 -5.83,-18.25 -8.72,-27.38 2.27,-1.29 1.76,-0.99 4.05,-2.29 15.76,19.82 31.53,39.61 47.3,59.42 0.37,-0.25 0.25,-0.18 0.62,-0.44l-0.21 -0.46 -0.23 -0.46 -0.2 -0.47 -0.24 -0.46 -0.2 -0.48 -0.23 -0.47 -0.21 -0.46 -0.23 -0.46 -0.21 -0.46 -0.23 -0.46 -0.21 -0.47 -0.23 -0.46 -0.21 -0.46 0 -0.03 -0.23 -0.46 -0.21 -0.46 -0.23 -0.46 -0.21 -0.46 -0.23 -0.47 -0.21 -0.46 -0.23 -0.46 -0.21 -0.46 0 -0.03 -0.23 -0.44 0 -0.02 -0.21 -0.46 -0.23 -0.46 -0.21 -0.47 -0.23 -0.46 -0.21 -0.46 -0.23 -0.46 -0.2 -0.47 0 -0.02 -0.24 -0.44 0 -0.02 -0.2 -0.46 -0.24 -0.47 -0.2 -0.46 -0.23 -0.46 -0.21 -0.46 -0.23 -0.47 0 -0.02 -0.21 -0.44 0 -0.02 -0.23 -0.44 0 -0.02 -0.21 -0.44 0 -0.03 -0.23 -0.46 -0.21 -0.46 -0.23 -0.46 -0.23 -0.47 -0.21 -0.46 0 -0.02 -0.23 -0.44 0 -0.02 -0.21 -0.44 0 -0.03 -0.23 -0.46 -0.21 -0.46 -0.23 -0.46 -0.21 -0.47 -0.23 -0.46 -0.21 -0.46 0 -0.02 -0.23 -0.44 0 -0.03 -0.21 -0.46 -0.23 -0.46 -0.23 -0.46 -0.21 -0.47 -0.23 -0.46 -0.21 -0.46 -0.23 -0.46 0 -0.03 -0.21 -0.46 -0.23 -0.46 -0.21 -0.46 -0.23 -0.47c1.07,-0.67 2.11,-1.31 3.17,-1.98 25.06,37.2 62.26,65.42 107.44,88.27 -4.49,-9.07 -8.88,-17.94 -13.27,-26.8 14.61,9.9 25.78,21.18 39.65,29.96 13.8,8.72 30.35,14.94 45.68,22.22 -2.31,-7.88 -4.97,-16.92 -8.23,-27.93 32.92,17.55 43.61,46.13 53.22,73.15 0.14,-0.02 0.3,-0.09 0.51,-0.18l3.61 1.99 2.87 1.69 1.1 0.67 2.46 1.55 0.39 0.23 2.89 1.89 0.37 0.26 3.17 2.22 0.55 0.41 2.5 1.87 1.41 1.09 1.55 1.25 2.19 1.83 0.65 0.55 2.75 2.43 0.16 0.16 3.15 2.94 0.28 0.27 1.64 1.65 1.62 1.66 0.85 0.9 0.74 0.81 1.64 1.8 2.29 2.66 0.53 0.63 1.67 2.06 1.15 1.45 0.97 1.27 0.54 0.74 1.48 2.01 1.96 2.8 0.23 0.35 1.62 2.47 0.76 1.18 1.02 1.67 1.23 2.03 0.48 0.83 1.62 2.92 0.02 0 1.53 2.91 0.46 0.88 1.02 2.06 0.85 1.75 0.56 1.21 1.2 2.63 0.14 0.32 1.25 2.99 0.23 0.55 0.97 2.43 0.56 1.43 0.57 1.57 0.84 2.34 0.23 0.69 0.99 3.01 0.07 0.21 0.88 2.79 0.32 1.09 0.56 1.94 0.04 0.19 0.77 2.84 0.74 2.85 0.02 0.16 0.72 3 0.64 3.01 0.35 1.62 0.25 1.36 0.49 2.5 0.07 0.48 0.97 5.95 0.19 1.22 0.23 1.71 0.27 2.08 0.1 0.83 0.32 2.89 0 0.03 0.28 2.84 0.09 0.88 0.14 1.97 0.39 5.31 0 0.3 0.14 2.75 0.02 0.51 0.07 2.22 0.05 1.3 0.02 1.38 0.05 2.06 0 0.58 0 2.61 0 2.57 0 0.95 -0.05 1.59 -0.02 1.64 -0.05 0.84 -0.07 2.31 0 0.11 -0.11 2.39 -0.02 0.57 -0.1 1.74 -0.07 1.25 -0.07 1.04 -0.11 1.85 -0.05 0.37 -0.18 2.15 -0.19 2.1 -0.07 0.88 -0.11 1.15c-4.09,3.36 -8.42,7.96 -10.38,13.53 -2.04,5.04 -2.78,10.45 -2.18,16.04 0.23,1.78 0.58,3.56 1.09,5.34l0.35 1.11z"/>
    <path class="fil4" d="M1124.49 717.86l-27.28 2.54c12,21.06 14.04,42.94 8.39,67 -2.82,-2.68 -4.81,-4.55 -7.07,-6.7 9.15,37.01 -10.59,68.76 -33.41,100.27 0.14,-2.68 0.28,-5.36 0.44,-8.02 -11.7,21.38 -23.4,42.72 -35.14,64.11 -1.64,-0.3 -3.35,-0.6 -5.04,-0.9 0.35,-7.4 0.65,-14.82 0.97,-22.2 -6.8,27.81 -20.74,52.48 -51.6,73.71 3.07,-8.65 5.18,-14.57 8.07,-22.73 -3.57,2.47 -4.93,2.98 -5.46,3.79 -18.03,27.14 -45.36,48.46 -71.3,70.98 -22.52,19.49 -40.74,41.96 -61.36,63.67 -2.45,-5.62 -5.74,-13.11 -9.02,-20.62 2.45,15.81 -1.25,29.2 -9.52,41.08 -9.85,14.17 -26.22,26.17 -46.34,37.64 2.27,-7.74 3.77,-12.78 5.28,-17.85 -15.8,15.08 -32.23,28.6 -59.91,31.51 3.4,-5.38 6.13,-9.73 9.11,-14.49 -39.7,12 -78.93,19.93 -120.98,5.11 4.48,3.58 7.02,5.64 10.84,8.69 -24.97,-0.07 -39.4,-10.29 -52.74,-26.89 1.48,6.01 2.27,8.95 3.01,11.86 -0.83,0.51 -1.69,1.04 -2.54,1.6 -22.32,-17.46 -44.63,-34.84 -66.68,-52.09 -9.32,-7.26 -18.57,-14.47 -27.77,-21.64 -0.39,7.37 -0.9,15.81 -1.43,24.92 -25.67,-21.66 -50.13,-42.31 -76.81,-64.83 2.94,10.8 5.04,18.57 7.17,26.36 -0.95,0.74 -1.89,1.5 -2.82,2.22 -23.1,-12.69 -46.22,-25.32 -69.36,-37.96 2.87,4.02 5.71,8.09 8.53,12.14 -25.24,-0.35 -57.36,-31.33 -67.72,-64.11 -0.2,3.25 -0.41,6.56 -0.64,9.71 -18.24,-9.09 -23.17,-23.73 -37.11,-73.83 -11.19,3.7 -22.45,7.47 -34.73,11.52 1.92,-25.02 3.66,-48.48 5.41,-72.18 -14.01,2.86 -26.65,5.48 -40.29,8.27 7.23,-21.22 14.19,-41.75 20.97,-61.75 2.82,-8.32 5.61,-16.55 8.39,-24.74 -4.9,0.88 -9.97,1.78 -15.38,2.78 -6.7,1.22 -13.98,2.52 -22.12,4 4.23,-8.14 10.31,-18.08 17.01,-28.6 5.07,-7.93 10.48,-16.19 15.66,-24.23l25.36 -43.12c-8.74,1.34 -17.09,2.61 -25.46,3.88 8.79,-9.77 20.84,-40.48 29.9,-64.59 -25.09,4.07 -46.56,1.27 -64.55,-6.66 -50.68,-22.33 -73.62,-85.1 -71.6,-147.55 13.08,-46.7 31.97,-91.07 55.88,-132.18 4.94,-3.95 10.22,-7.42 15.79,-10.35 9.5,-4.97 19.9,-8.37 31.19,-9.85 50,-6.59 76.85,16.64 91.11,40.94l0.02 0.03c8.77,-11.7 20.51,-22.45 36.51,-32.14 -3.47,8.41 -5.83,14.19 -9.06,22.1 3.7,-2.22 5.11,-2.66 5.68,-3.47 19.31,-25.98 47.82,-45.77 75,-66.81 23.56,-18.2 42.91,-39.58 64.67,-60.07 2.27,5.69 5.29,13.3 8.35,20.93 -4.21,-34.71 21.31,-56.25 59.62,-75.33 -2.61,7.58 -4.32,12.53 -6.03,17.48 16.55,-14.15 33.75,-26.73 61.98,-28.25 -3.23,4.58 -5.92,8.37 -8.74,12.37 -0.37,0.51 -0.74,1.01 -1.08,1.55 12.8,-3.13 25.57,-5.83 38.35,-7.59 27.84,-3.79 55.74,-2.93 84.62,8.6 -4.42,-3.79 -6.94,-5.92 -10.7,-9.15 25.33,1.34 39.58,12.18 52.5,29.31 -1.29,-5.92 -1.94,-8.85 -2.57,-11.74 1.28,-0.83 1.28,-0.81 2.57,-1.64 31.21,26.15 62.47,52.29 93.06,77.91 0.69,-7.28 1.5,-15.65 2.38,-24.65 25.25,22.78 49.27,44.49 75.51,68.16 -2.55,-10.84 -4.42,-18.66 -6.27,-26.49 1.32,-1.02 1.44,-1.11 2.75,-2.15 23.03,13.75 46.06,27.51 69.09,41.27 -2.73,-4.17 -5.46,-8.35 -8.19,-12.51 9.2,0.58 19.14,5.11 28.53,12.23 5.71,-12.02 14.43,-23.31 27.63,-31.31 0.62,-0.39 1.27,-0.76 1.94,-1.13l0 0c9.92,-5.59 22.29,-9.36 37.62,-10.36 8.64,-0.55 17.04,0.33 25.08,2.45 46.66,58.43 82.1,126.15 103.02,199.78 -1.01,12.35 -3.19,24.19 -6.63,35.21 -3.38,10.73 -7.93,20.67 -13.8,29.48 -5.02,7.54 -10.99,14.24 -17.97,19.88 -13.43,10.94 -30.66,17.97 -52.04,19.56 -7.52,0.56 -15.54,0.44 -24.09,-0.39l-2.61 -0.28c0.94,5.27 2.95,11.03 6.19,17.09 0.23,0.39 0.42,0.78 0.65,1.18 9.13,16.94 18.98,33.59 33.24,48.96 5.39,5.76 11.38,11.38 18.2,16.74 -8.51,0.26 -17.02,0.54 -25.87,0.81 -4.65,0.14 -9.36,0.3 -14.29,0.42 2.98,3.91 5.97,7.86 8.99,11.81 10.08,13.18 20.35,26.68 30.89,40.51zm-787.45 -89.08c-2.53,8.88 -23.08,21.2 -19.93,50.01 3.16,28.78 24.06,48.09 24.06,48.09 0,0 -1.92,0.64 -7.76,0.18 0,0 -0.47,13.13 18.05,19.44 0,0 -1.41,4.58 -8.07,2.06 0,0 4.88,14.41 18.98,17.73 0,0 -0.78,5.07 -6.17,3.31 0,0 19.44,25.66 33.69,27.86 0,0 -6.96,6.01 -21.2,1.27 0,0 20.25,19.31 38.93,18.98l-3.17 6.96 16.14 0 -6.34 6.96c0,0 24.37,-2.82 31.98,-8.21 0,0 -10.15,11.06 -24.37,10.75 0,0 40.83,2.22 52.21,-7.9 0,0 -6.02,8.85 -4.12,8.53 1.9,-0.32 8.25,-1.9 13.29,-8.53 0,0 -3.81,6.31 -1.89,6.31 1.89,0 20.57,3.49 49.68,-25.32 25.71,-25.43 95.97,-114.32 104.99,-172.22 1.18,-7.6 1.29,-14.72 0.14,-21.06 -10.13,-54.4 -258.2,-27.86 -299.12,14.8zm330.03 234.53c-3.82,-1.9 -12.02,-13.92 -40.83,-18.36 -28.81,-4.42 -62.35,-25.64 -48.74,-53.48 13.62,-27.86 93.06,-41.15 152.22,-29.13 59.17,12.05 32.93,50.03 0.95,64.57 -31.95,14.57 -47.16,33.23 -47.16,33.23l-1.25 39.83c0,0 20.23,20.88 54.42,20.88 34.17,0 62.45,-23.67 75,-40.83 0,0 -29.34,67.63 -117.12,44.37 -16.28,-4.33 -13.13,-5.92 -27.42,2.66 -33.46,20.04 -133.93,56.15 -176.98,-44.19 0,0 30.47,62.77 98.12,60.81 24.85,-0.72 52.22,-8.62 79.41,-39.91l-0.62 -40.45zm67.46 -86.4c-13.92,-2.36 -71.37,-11.7 -125.28,5.13 0,0 40.39,10.8 125.28,-5.13zm245.46 -168.38c2.52,8.87 23.08,21.2 19.93,50 -3.16,28.79 -24.04,48.09 -24.04,48.09 0,0 1.89,0.65 7.74,0.19 0,0 0.47,13.13 -18.03,19.44 0,0 1.39,4.58 8.05,2.06 0,0 -4.88,14.4 -18.98,17.73 0,0 0.78,5.07 6.17,3.31 0,0 -19.45,25.66 -33.69,27.86 0,0 6.96,6.01 21.2,1.27 0,0 -20.25,19.3 -38.93,18.98l3.17 6.96 -16.14 0 6.33 6.96c0,0 -24.36,-2.82 -31.97,-8.21 0,0 10.15,11.05 24.37,10.75 0,0 -40.81,2.22 -52.21,-7.91 0,0 6.01,8.86 4.12,8.54 -1.9,-0.33 -8.25,-1.9 -13.29,-8.54 0,0 3.81,6.32 1.89,6.32 -1.89,0 -20.55,3.49 -49.68,-25.32 -29.11,-28.78 -115.23,-138.88 -105.13,-193.28 10.13,-54.42 258.2,-27.86 299.12,14.8zm-270.52 -180.2c0,0 5.09,-25.32 24.69,-31.33l31.03 -32.27 -2.84 9.48c0,0 61.68,-40.19 98.72,-30.68 0,0 -26.59,-1.6 -44,14.86 0,0 66.47,-16.44 98.1,1.27 0,0 -34.5,-8.23 -50.94,5.07 0,0 47.79,-13.92 88.92,98.09 0,0 -48.73,-60.43 -111.39,-53.79 0,0 12.65,-8.86 8.53,-8.86 -4.09,0 -22.45,-4.11 -60.11,6.96 0,0 9.5,-12.05 6.96,-10.45 -2.54,1.57 -41.45,9.48 -51.26,26.26l-3.16 -6.33c0,0 -7.59,0.3 -7.29,6.96 0,0 -3.9,-9.32 -1.89,-18.66 0,0 -8.56,0.95 -24.07,23.42zm-395.46 115.44c4.44,-5.69 52.2,-61.41 96.85,-74.06 0,0 12,-18.68 49.36,-15.51 0,0 -10.92,-9.82 -9.32,-9.34 1.57,0.49 33.55,3.15 43.44,6.64l-4.83 -10.29c0,0 17.15,2.47 25.08,7.84 0,0 -5.68,-15.08 -3.93,-12.56 1.74,2.54 15.82,10.29 18.04,12.21 0,0 -2.22,-9.99 -0.95,-11.24 1.25,-1.27 -25.15,-30.56 -47.3,-32.94l21.82 16.3c0,0 -33.08,-22.31 -55.23,-17.71 0,0 15.81,5.71 20.41,9.66 0,0 -75.78,-18.7 -122.62,15.65 0,0 27.69,-8.55 35.6,-5.22 0,0 -33.87,5.69 -49.54,24.37 0,0 10.47,-7.26 19.16,-9.02 0,0 -14.24,6.66 -28.81,24.23 0,0 13.44,-12.35 26.73,-15.51 0,0 -24.53,22.63 -34.36,49.52l11.4 -4.12c0,0 -30.08,47.47 -30.38,59.19l29.76 -33.87c0,0 -9.18,16.46 -10.38,25.78zm-18.31 -128.55l0 0.02c-79.12,59.65 -56,151.35 -41.69,189.33l0.88 2.29 0.25 0.67c3.59,9.13 6.34,14.47 6.34,14.47 -2.22,0.91 -4.44,1.72 -6.61,2.5 -1.27,0.46 -2.52,0.88 -3.75,1.3l-3.05 0.99c-7.28,19.1 -17.96,46.59 -19.86,50.42 18.84,0.28 27.07,-11.97 39.33,-23.79 -11.03,26.13 -20.72,49.3 -31.24,74.31 9.48,-5.43 17.67,-10.15 25.04,-14.36 -7.21,17.62 -14.54,35.54 -21.89,53.48 1.27,0.3 2.54,0.62 3.79,0.92 7.21,-8.06 14.43,-16.16 21.68,-24.22 1.23,0.48 2.43,0.94 3.66,1.43 -11.24,12.92 -16.83,26.59 -15.4,41.8 1.36,14.45 -0.09,29.31 10.47,44.78 2.71,-16.51 2.89,-30.59 14.13,-42.65 -4.69,34.58 8.32,65.05 28.09,94.14 0.83,-6.87 -0.51,-13.57 -0.05,-20.21 0.51,-6.59 2.8,-13.11 4.28,-19.63 1.39,0.05 2.84,0.05 4.23,0.05 -2.96,25.76 12.25,46.08 27.65,69.04 -2.26,-12.58 -4.07,-22.64 -5.89,-32.7 1.22,-0.27 2.47,-0.55 3.72,-0.8 16.71,36.09 50.08,61.61 85.59,85.82 24.51,16.69 55.16,27.76 74.86,48.83 0.14,0.16 1.25,-0.28 2.75,-0.7 -11.72,-25.87 -28.9,-48.6 -55.53,-66.63 13.43,6.59 25.43,14.1 36.34,22.47 21.83,16.81 35.14,38.01 47.44,59.79 6.48,11.47 15.24,22.03 22.98,33.02 0.56,-0.24 1.14,-0.51 1.74,-0.79 -1.37,-6.47 -2.73,-12.97 -4.23,-20.14 14.19,9.99 27.28,19.19 40.39,28.42l2.38 -1.95c-1.04,-2.08 -2.17,-4.06 -3.12,-6.15 -1.09,-2.26 -2.04,-4.6 -3.22,-7.19 1.9,0.03 2.87,-0.2 3.45,0.07 39.51,19.59 81.01,18.36 123.81,1.92 10.15,-3.9 18.12,-9.15 24.13,-15.67 4.93,-5.32 8.53,-11.49 10.89,-18.38 0.42,-1.21 1.64,-2.27 2.52,-3.4 0.65,0.14 1.3,0.32 1.94,0.44 -1.59,8.95 -3.19,17.94 -4.76,26.93 1.34,0.26 2.71,0.6 4.02,0.88 11.86,-20.02 23.7,-40 35.56,-60.02 0.23,0.02 0.49,0.02 0.77,0.02l-9.18 29.09c1.01,0.51 2.03,0.99 3.03,1.5 18.26,-37.22 48.48,-67.65 86.53,-94.05 -3.03,8.88 -5.94,17.53 -8.83,26.22 12.02,-10.82 20.72,-22.54 32.23,-32.3 11.42,-9.64 25.59,-17.36 38.59,-25.87 -1.18,7.51 -2.55,16.16 -4.17,26.63 27.63,-20.04 38.27,-44.16 43.82,-70.14 1.2,0.09 2.42,0.16 3.65,0.23l2.64 32.81c24.94,-28.86 19,-58.84 25.98,-87.35 2.48,8.83 4.95,17.73 7.42,26.61 1.02,-0.16 2.06,-0.3 3.06,-0.46 -0.54,-25.13 -1.02,-50.26 -1.53,-75.35 8.18,5.71 15.63,10.87 23.1,16.05 -9.44,-37.5 -10.96,-51.45 -4.74,-64.48 5.01,2.26 9.82,4.57 14.79,6.7 4.19,1.83 8.53,3.47 15.1,6.1 0.58,0.19 1.16,0.44 1.71,0.67 -1.8,-2.15 -3.58,-4.27 -5.27,-6.42 -19.31,-24.28 -30.43,-48.58 -31.14,-75.95 5.38,2.13 10.77,4.23 17.01,6.66 3.08,1.2 6.38,2.49 9.99,3.9 -4.81,-6.12 -10.08,-10.89 -13.34,-15.56 -1.48,-2.12 -2.52,-4.23 -2.98,-6.4 -0.26,-1.48 -0.23,-2.96 0,-4.48 0.85,-5.81 4.69,-12 6.59,-17.83 0.11,0.12 0.25,0.3 0.34,0.49 -0.8,-1.92 -1.5,-3.82 -2.03,-5.72 -0.51,-1.78 -0.86,-3.56 -1.09,-5.34 -0.6,-5.59 0.14,-11 2.18,-16.04 1.96,-5.57 6.29,-10.17 10.38,-13.53 4.25,-42.77 2.15,-129.44 -75.49,-170.92 -0.21,0.09 -0.37,0.16 -0.51,0.18 -9.61,-27.02 -20.3,-55.6 -53.22,-73.15 3.26,11.01 5.92,20.05 8.23,27.93 -15.33,-7.28 -31.88,-13.5 -45.68,-22.22 -13.87,-8.78 -25.04,-20.06 -39.65,-29.96 4.39,8.86 8.78,17.73 13.27,26.8 -45.18,-22.85 -82.38,-51.07 -107.44,-88.27 -1.06,0.67 -2.1,1.31 -3.17,1.98 4.72,9.95 9.41,19.86 14.08,29.78 -0.37,0.26 -0.25,0.19 -0.62,0.44 -15.77,-19.81 -31.54,-39.6 -47.3,-59.42 -2.29,1.3 -1.78,1 -4.05,2.29 2.89,9.13 5.8,18.24 8.72,27.38 -0.7,0.25 -1.37,0.5 -2.06,0.74 -1.11,-1.09 -2.64,-2.06 -3.26,-3.31 -7.82,-15.61 -21.78,-26.5 -42.93,-31.42 -24.67,-5.8 -48.46,-7.51 -71.14,-4.39 -22.36,3.07 -43.65,10.82 -63.7,24 -0.58,0.37 -2.66,1.78 -3.7,0.57l2.06 -16.18c0.05,-0.32 -0.25,-0.58 -0.53,-0.49 -22.89,7.36 -22.04,28.28 -39.49,35.86 -0.97,0.42 1.94,-6.96 2.77,-13.66 0.42,-3.33 0.35,-6.5 -0.97,-8.44 -0.41,-0.62 -1.38,-0.88 -2.06,-0.58 -8.83,4.03 -17.47,16.46 -24.99,31.4 -14.08,27.84 -24.37,64.3 -25.24,70.61 -1.48,10.66 -1.14,-45.09 -1.92,-43.1 -8.42,20.67 -20.86,31.03 -34.24,38.82 -13.69,7.95 -28.35,13.22 -40.67,24 -29.78,26.05 -57.73,52.9 -73.73,85.17l-0.02 0z"/>
   </g>
   <g style="clip-path:url(#id1)">
    <image x="1401.61" y="33.86" width="1183.97" height="1202.25" xlink:href="no-image_Images\no-image_ImgID1.png"/>
   </g>
   <g style="clip-path:url(#id2)">
   </g>
  </g>
  <polygon class="fil0" points="634.98,33.86 844.27,121.89 1053.58,209.92 1140.27,422.46 1226.96,634.99 1140.27,847.51 1053.58,1060.05 844.27,1148.08 634.98,1236.11 425.69,1148.08 216.38,1060.05 129.69,847.51 42.99,634.99 129.69,422.46 216.38,209.92 425.69,121.89 "/>
 </g>
</svg>
